<svg width="32" height="24" viewBox="0 0 32 24" fill="none" xmlns="http://www.w3.org/2000/svg">
<path fill-rule="evenodd" clip-rule="evenodd" d="M31.9498 22.5031C31.9498 22.5042 31.95 22.5054 31.95 22.5054C31.95 23.0538 31.5044 23.4973 30.955 23.4973H23.5431C24.0985 23.3745 24.5146 22.8833 24.5146 22.2921C24.5146 22.2909 24.5143 22.2909 24.5143 22.2897H24.5152C24.5152 22.2897 24.5152 17.786 21.2136 16.148C19.8023 15.4483 19.709 15.5818 19.0083 15.4161L19.0275 13.4658C19.0275 13.4658 18.2568 12.8781 18.0174 11.0351C17.5349 11.1746 17.3758 10.4713 17.3473 10.023C17.3214 9.59149 17.0682 8.23966 17.6565 8.36246C17.5361 7.46003 17.4497 6.64703 17.4921 6.2155C17.6397 4.70272 19.1016 3.122 21.3533 3.00758C24.002 3.122 25.0512 4.70153 25.1983 6.21431C25.2412 6.64583 25.1468 7.46003 25.0263 8.36007C25.615 8.23966 25.3591 9.58792 25.3305 10.0206C25.3045 10.4689 25.1415 11.1698 24.6607 11.0303C24.4201 12.8733 23.6493 13.4563 23.6493 13.4563L23.6674 15.4041C23.6674 15.4041 24.1547 15.6819 26.2126 16.5307C28.2707 17.3818 27.625 16.7452 29.3015 17.5761C31.9503 18.8898 31.9503 22.5031 31.9503 22.5031H31.9498ZM17.023 15.8405C19.2852 16.7751 18.5755 16.0753 20.4182 16.9896C23.3298 18.4333 23.3298 22.4053 23.3298 22.4053H23.329C23.329 22.4053 23.3294 22.4065 23.3294 22.4077C23.3294 23.0097 22.8397 23.4973 22.2358 23.4973H1.0935C0.489472 23.4973 -9.6e-05 23.0097 -9.6e-05 22.4077C-9.6e-05 22.4065 0.000128 22.4053 0.000128 22.4053H-0.000544C-0.000544 22.4053 -0.000544071 18.4333 2.91126 16.9884C4.75366 16.0753 4.04435 16.8168 6.30627 15.8822C8.56819 14.9488 9.10413 14.6221 9.10413 14.6221L9.12541 12.4704C9.12541 12.4704 8.27821 11.8243 8.01501 9.80012C7.4848 9.9527 7.30982 9.17903 7.27856 8.68669C7.25018 8.21225 6.97187 6.72691 7.61846 6.86162C7.48618 5.86979 7.39107 4.97571 7.43776 4.50306C7.59994 2.83949 9.20669 1.1026 11.6818 0.975045C14.5932 1.10141 15.7465 2.8383 15.9081 4.50007C15.9553 4.97451 15.8516 5.86859 15.7192 6.85923C16.3662 6.72691 16.0849 8.20868 16.0533 8.68432C16.0248 9.17666 15.8457 9.94675 15.3171 9.79416C15.0528 11.8195 14.2056 12.4597 14.2056 12.4597L14.2255 14.6019C14.2255 14.6019 14.7611 14.9058 17.023 15.8405Z" fill="white"/>
</svg>
